PathFileType	4	(X/Y/Z)	C:/Users/beibeiliu/ov580/test_trc/User2\sequence.13_training_dense_left.trc
DataRate	CameraRate	NumFrames	NumMarkers	Units	OrigDataRate	OrigDataStartFrame	OrigNumFrames
120	120	9	19	mm	120	28	83
Frame#	Time	ThumbCMC			ThumbMCP			ThumbIP			ThumbTip			IndexMCP			IndexPIP			IndexTip			MiddleMCP			MiddlePIP			MiddleTip			RingMCP			RingPIP			RingTip			PinkyMCP			PinkyPIP			PinkyTip			BackHand1			BackHand2			BackHand3	
		X0	Y0	Z0	X1	Y1	Z1	X2	Y2	Z2	X3	Y3	Z3	X4	Y4	Z4	X5	Y5	Z5	X6	Y6	Z6	X7	Y7	Z7	X8	Y8	Z8	X9	Y9	Z9	X10	Y10	Z10	X11	Y11	Z11	X12	Y12	Z12	X13	Y13	Z13	X14	Y14	Z14	X15	Y15	Z15	X16	Y16	Z16	X17	Y17	Z17	X18	Y18	Z18	
27	0.225	-147.008	-6.3512	-69.9104	-133.232	27.4441	-80.22	-101.413	45.6422	-94.6921	-73.1616	46.8983	-96.8625	-86.3179	-11.8306	-123.983	-61.7444	15.1979	-122.858	-53.0997	29.8032	-95.1042	-73.8622	-35.6826	-129.531	-46.8939	-27.171	-145.632	-21.0401	-8.76672	-160.594	-63.62	-56.2702	-107.943	-38.5515	-51.1751	-127.493	-17.6337	-43.3314	-141.098	-58.5756	-64.6237	-77.39	-38.743	-63.2448	-92.488	-16.1403	-66.5844	-107.292	-106.724	-62.018	-71.1437	-129.243	-72.2684	-47.9543	-135.653	-47.5147	-81.2448	
28	0.233333	-153.19	-8.58883	-74.0458	-143.408	20.9333	-82.4006	-118.429	44.5836	-97.191	-92.838	51.8744	-101.374	-92.3583	-6.39724	-130.179	-73.626	18.9505	-129.625	-67.2165	43.5958	-100.969	-80.2445	-30.8972	-130.299	-55.1759	-16.0793	-153.863	-33.3235	-0.476729	-165.107	-61.9515	-44.6294	-114.015	-42.8361	-38.1217	-134.77	-24.2876	-27.3952	-150.85	-55.6828	-49.6962	-82.8427	-30.8706	-49.1096	-97.2173	-12.2648	-51.0872	-112.571	-96.5787	-60.8237	-72.6767	-122.817	-71.0034	-47.1614	-135.348	-51.8484	-79.3116	
29	0.241667	-157.808	-15.4289	-70.3664	-149.943	15.0016	-87.2228	-134.885	43.1614	-105.552	-106.935	52.9223	-113.12	-102.968	-13.1334	-134.523	-89.1133	17.6338	-140.487	-85.6703	45.405	-117.194	-83.2052	-36.8781	-136.444	-66.4506	-21.3145	-161.416	-47.9026	-0.276122	-182.284	-68.2048	-44.1488	-119.519	-50.9514	-37.724	-141.761	-33.1923	-27.7701	-161.258	-57.6355	-44.0096	-90.5982	-34.8026	-44.4744	-108.176	-18.665	-45.2284	-125.552	-100.939	-58.3816	-72.1523	-116.291	-67.907	-47.4365	-136.438	-55.335	-77.5221	
30	0.25	-162.044	-26.628	-74.505	-164.194	4.80142	-95.7959	-148.449	26.2256	-113.887	-123.78	35.894	-129.372	-125.546	-25.648	-147.647	-111.29	-1.0144	-154.147	-102.807	31.1335	-134.434	-102.802	-54.089	-142.512	-88.9368	-43.1148	-174.723	-75.2936	-25.834	-197.072	-83.9078	-59.0753	-131.802	-69.1759	-53.8069	-156.874	-62.8813	-41.8592	-183.103	-66.8507	-54.1088	-104.384	-50.5469	-54.1788	-122.754	-35.3798	-58.8043	-146.903	-102.169	-68.9268	-78.4599	-116.61	-74.0813	-47.2463	-141.413	-66.3299	-77.3128	
31	0.258333	-176.555	-35.2574	-73.0501	-179.9	-5.62016	-99.0659	-167.614	10.1472	-124.089	-148.72	19.6725	-146.792	-151.167	-47.1978	-152.188	-143.853	-21.0741	-165.462	-130.798	9.54912	-153.835	-133.361	-76.5924	-152.259	-126.182	-70.2043	-184.421	-118.295	-58.0034	-214.077	-108.822	-78.8395	-137.384	-104.61	-78.6126	-164.593	-99.517	-71.2841	-196.009	-87.4874	-71.3169	-113.719	-73.9303	-77.2958	-140.017	-67.5461	-80.913	-160.518	-119.923	-80.7487	-82.5416	-128.956	-80.1333	-49.4237	-160.256	-74.1349	-77.4164	
32	0.266667	-186.116	-35.7911	-73.8875	-187.681	-10.7198	-99.4975	-180.335	5.42691	-130.902	-161.256	4.7265	-153.318	-179.954	-60.0464	-148.046	-165.897	-36.1165	-169.686	-146.511	-8.84664	-164.092	-160.98	-90.5598	-148.132	-160.509	-91.3025	-182.858	-156.835	-81.918	-214.79	-140.725	-95.4356	-139.982	-137.369	-99.9798	-167.26	-136.707	-95.6548	-197.93	-110.729	-90.5374	-122.183	-108.516	-98.9075	-149.071	-103.257	-106.788	-173.979	-138.011	-90.8603	-85.7702	-142.351	-85.663	-51.2392	-170.508	-78.5099	-73.0507	
33	0.275	-191.694	-28.3694	-72.1978	-187.916	-5.89502	-102.124	-179.215	4.66746	-137.392	-164.712	0.905659	-156.922	-194.069	-59.7085	-147.429	-179.764	-41.07	-171.171	-155.163	-17.279	-169.016	-190.158	-91.2344	-148.52	-192.053	-93.619	-180.26	-190.324	-88.5512	-211.082	-170.003	-102.111	-141.133	-171.695	-108.026	-166.708	-174.207	-106.141	-199.448	-138.957	-106.38	-127.297	-142.016	-114.05	-152.143	-141.775	-125.797	-172.852	-161.079	-93.9293	-87.0083	-158.321	-91.0453	-56.2988	-187.461	-77.0271	-72.4893	
34	0.283333	-182.009	-18.5101	-70.2836	-173.081	4.89155	-99.1977	-164.983	11.7175	-131.896	-154.73	2.11212	-157.658	-203.456	-42.6718	-143.274	-181.698	-29.1697	-170.128	-155.441	-18.4432	-171.618	-210.021	-76.0254	-145.675	-214.04	-77.3057	-179.422	-212.776	-71.7303	-212.592	-191.714	-95.3876	-136.248	-203.541	-97.1924	-164.753	-206.015	-95.682	-196.262	-161.929	-103.253	-122.442	-176.071	-114.633	-149.413	-185.504	-121.208	-171.419	-176.3	-87.9711	-86.2051	-168.798	-86.8397	-52.3428	-194.057	-64.4822	-70.3296	
35	0.291667	-162.718	-10.0448	-66.5567	-149.555	10.2993	-97.1629	-141.923	12.3233	-131.471	-135.751	6.86401	-159.496	-195.145	-20.5905	-142.813	-177.894	-9.00412	-165.088	-139.934	-10.6417	-169.984	-212.886	-46.4262	-138.787	-221.064	-43.037	-174.96	-219.294	-40.2274	-205.57	-204.535	-71.0458	-133.195	-218.11	-71.5587	-162.848	-222.693	-66.3261	-188.448	-182.469	-89.7149	-121.813	-199.002	-97.3487	-145.024	-213.649	-97.6941	-165.543	-183.398	-76.9069	-87.8869	-176.831	-77.2678	-54.6131	-190.753	-42.775	-65.1913	
